Coordinates
version=1
nRows=16
nColumns=40
inDegrees=yes

Units are S.I. units (second, meters, Newtons, ...)
Angles are in degrees.

endheader
time	pelvis_tilt	pelvis_list	pelvis_rotation	pelvis_tx	pelvis_ty	pelvis_tz	hip_flexion_r	hip_adduction_r	hip_rotation_r	knee_angle_r	knee_angle_r_beta	ankle_angle_r	subtalar_angle_r	mtp_angle_r	hip_flexion_l	hip_adduction_l	hip_rotation_l	knee_angle_l	knee_angle_l_beta	ankle_angle_l	subtalar_angle_l	mtp_angle_l	lumbar_extension	lumbar_bending	lumbar_rotation	arm_flex_r	arm_add_r	arm_rot_r	elbow_flex_r	pro_sup_r	wrist_flex_r	wrist_dev_r	arm_flex_l	arm_add_l	arm_rot_l	elbow_flex_l	pro_sup_l	wrist_flex_l	wrist_dev_l
     46.72500000	     -4.16341589	     -4.58676746	      8.32720539	      1.07874987	      0.92358495	      0.49589797	     -0.78617357	      0.55732416	    -12.82220486	     15.22462347	     15.22462347	     17.41621990	      1.31470575	     -2.32538464	     24.20732487	     -8.45067772	      2.48599274	     24.74053500	     24.74053500	      8.22601153	     -8.35771845	      0.40841523	     -6.60083709	      3.45804671	      3.24156664	     51.51911496	    -17.47146069	    -10.54740900	     74.81647281	     45.28833427	      0.00000000	      0.00000000	     -8.19165974	    -11.66512085	     13.27962485	     31.03351870	     44.32060590	      0.00000000	      0.00000000
     46.74600000	     -4.31188111	     -4.66684370	      7.71968906	      1.07923733	      0.92454343	      0.49161376	     -0.87902149	      0.17457841	    -12.82344299	     15.28249894	     15.28249894	     16.96962865	      2.23794046	     -2.48869074	     23.81490949	     -8.35536993	      2.21651400	     24.63632877	     24.63632877	      8.40413231	     -8.93253617	      0.66747039	     -6.54435431	      3.62554576	      3.27441204	     50.50469034	    -17.19223986	    -10.69121164	     74.10709320	     45.31432587	      0.00000000	      0.00000000	     -7.09184683	    -12.12511139	     12.85484876	     31.57150634	     44.41555076	      0.00000000	      0.00000000
     46.76700000	     -4.47132621	     -4.80816112	      7.11357478	      1.07957903	      0.92539765	      0.48731972	     -0.94829397	     -0.13083412	    -12.73437863	     15.31436469	     15.31436469	     16.53727535	      3.03741332	     -2.60519299	     23.51027197	     -8.32776806	      1.89394207	     24.62287003	     24.62287003	      8.56162155	     -9.44303480	      0.91464969	     -6.52730125	      3.88740462	      3.18121587	     49.35649856	    -16.86289845	    -10.82272514	     73.36903347	     45.33923665	      0.00000000	      0.00000000	     -5.98978351	    -12.56624402	     12.51505988	     32.13163615	     44.48980206	      0.00000000	      0.00000000
     46.78800000	     -4.62204886	     -4.91225289	      6.48626735	      1.07981427	      0.92615892	      0.48292847	     -1.04287361	     -0.52800139	    -12.90554726	     15.31258580	     15.31258580	     16.11042938	      4.31124693	     -2.94787337	     23.18615414	     -8.21711857	      1.72219158	     24.61770565	     24.61770565	      8.83489850	    -10.13367176	      1.45519393	     -6.51842750	      4.14443065	      3.34939176	     48.07242792	    -16.57958664	    -11.35996539	     72.05667975	     45.39723606	      0.00000000	      0.00000000	     -4.74203522	    -13.04837695	     11.92008035	     33.04729199	     44.60947288	      0.00000000	      0.00000000
     46.80900000	     -4.77356063	     -5.03752605	      5.83675593	      1.07987282	      0.92669278	      0.47859388	     -1.09112536	     -0.89407241	    -12.96517534	     15.35013180	     15.35013180	     15.69477098	      5.41997741	     -3.30457734	     22.98030140	     -8.14811819	      1.49699873	     24.80495641	     24.80495641	      9.17279798	    -10.76274921	      2.14437182	     -6.59132042	      4.39496380	      3.27253187	     46.70122591	    -16.06721459	    -12.00848218	     70.49628737	     45.46627024	      0.00000000	      0.00000000	     -3.58074025	    -13.49918042	     11.23998708	     33.97394739	     44.74468727	      0.00000000	      0.00000000
     46.83000000	     -4.96793480	     -5.16243275	      5.19413295	      1.07982486	      0.92688398	      0.47416416	     -1.09559969	     -1.24567279	    -12.91401302	     15.36301690	     15.36301690	     15.36322768	      6.32822885	     -3.68173306	     22.92485579	     -8.06755609	      1.26814008	     25.18508660	     25.18508660	      9.85678262	    -11.27104157	      3.28494609	     -6.57622550	      4.68816010	      2.94520292	     45.39299416	    -15.17223394	    -12.80199427	     68.20350221	     45.56150873	      0.00000000	      0.00000000	     -2.53940100	    -13.96030120	     10.19318714	     34.93479393	     44.95909028	      0.00000000	      0.00000000
     46.85100000	     -5.06988674	     -5.33825334	      4.51161515	      1.07963086	      0.92688710	      0.46989851	     -1.12818560	     -1.48066405	    -12.49281167	     15.45527697	     15.45527697	     15.18166765	      6.72379931	     -3.67042938	     22.79711313	     -8.10428905	      0.91861178	     25.56661363	     25.56661363	     10.14716681	    -11.78839277	      3.23098982	     -6.80446921	      5.07559381	      2.69211370	     43.50133750	    -14.58452754	    -12.64277687	     67.29235360	     45.57699541	      0.00000000	      0.00000000	     -1.16588101	    -14.49750805	      9.99962967	     35.42185338	     45.00533265	      0.00000000	      0.00000000
     46.87200000	     -5.33120051	     -5.48426391	      3.80207348	      1.07916470	      0.92627074	      0.46546838	     -0.84205670	     -1.85579591	    -12.30825122	     15.82328003	     15.82328003	     15.15239668	      7.48627966	     -3.78665753	     23.00372509	     -8.03573436	      0.76807073	     26.23389726	     26.23389726	     10.56256301	    -12.65471421	      3.48652455	     -6.78707576	      5.33949470	      3.35632378	     41.30105800	    -15.16341418	    -13.11111692	     64.48038873	     45.67913314	      0.00000000	      0.00000000	      0.67408588	    -14.84725731	      9.66630531	     36.39074577	     45.08614395	      0.00000000	      0.00000000
     46.89300000	     -5.36307395	     -5.58390597	      3.12665837	      1.07874398	      0.92566126	      0.46106209	     -0.77437764	     -2.22266126	    -11.88070685	     16.23849274	     16.23849274	     15.16896666	      7.83255881	     -3.89181435	     22.96965422	     -7.97163069	      0.48850812	     26.92620990	     26.92620990	     11.03494222	    -13.34237251	      3.45612849	     -7.16158377	      5.63646252	      3.07989156	     39.06041540	    -14.58845073	    -13.09909797	     62.86707838	     45.72188659	      0.00000000	      0.00000000	      2.17450049	    -15.37860432	      9.49131037	     36.88909004	     45.13250364	      0.00000000	      0.00000000
     46.91400000	     -5.59874889	     -5.63333996	      2.37892609	      1.07781972	      0.92443293	      0.45655608	     -0.06861831	     -2.78455428	    -11.52392487	     17.39335657	     17.39335657	     15.34401448	      8.16632517	     -4.34932036	     23.33622623	     -7.79464375	      0.35300904	     27.94986051	     27.94986051	     12.10416396	    -14.06235139	      5.09143941	     -7.14874990	      5.84693377	      3.08862608	     38.08940426	    -13.95682660	    -14.31474670	     56.46489419	     45.96821090	      0.00000000	      0.00000000	      4.10829276	    -15.77012154	      9.70163294	     36.97676127	     45.18486261	      0.00000000	      0.00000000
     46.93500000	     -5.75631085	     -5.74000941	      1.65280352	      1.07685213	      0.92294077	      0.45214352	      0.74779073	     -3.25487722	    -10.88505217	     18.88321214	     18.88321214	     15.49525689	      8.02758991	     -4.92155509	     23.63574594	     -7.74008019	      0.08619167	     28.93507433	     28.93507433	     12.68239764	    -14.76734156	      5.07572430	     -7.42111111	      6.14127135	      3.31380444	     35.53719863	    -13.95355101	    -14.35123377	     54.03587438	     46.03766451	      0.00000000	      0.00000000	      6.04493286	    -16.16298467	      9.48970903	     37.76379722	     45.24900011	      0.00000000	      0.00000000
     46.95600000	     -5.90487830	     -5.79285017	      0.92585415	      1.07571473	      0.92122036	      0.44771253	      1.86360393	     -3.81322543	    -10.13149566	     20.90686604	     20.90686604	     15.56904675	      7.54568427	     -5.83855050	     23.95157565	     -7.62932329	     -0.19311208	     29.95968179	     29.95968179	     13.33035439	    -15.43879805	      5.16178258	     -7.72898774	      6.38221458	      3.51820145	     33.01521658	    -13.88231077	    -14.38596137	     50.98653953	     46.12949830	      0.00000000	      0.00000000	      8.12392653	    -16.49703251	      9.38083249	     38.30494752	     45.30131672	      0.00000000	      0.00000000
     46.97700000	     -6.00003446	     -5.83878258	      0.25237089	      1.07450686	      0.91945294	      0.44329201	      3.07157738	     -4.31176912	     -9.14253237	     23.09218645	     23.09218645	     14.78216835	      6.33010426	     -8.85012160	     24.29986011	     -7.50441905	     -0.42936793	     31.15671791	     31.15671791	     14.60231587	    -15.80193822	      6.63781871	     -7.95043900	      6.62612371	      3.14722708	     31.81028097	    -13.17808843	    -14.83591014	     44.44369409	     46.34375382	      0.00000000	      0.00000000	     10.36856435	    -16.93390787	      9.86159042	     37.59755180	     45.32701674	      0.00000000	      0.00000000
     46.99800000	     -6.10787896	     -5.83616320	     -0.42750988	      1.07313562	      0.91743530	      0.43896415	      4.83328841	     -4.94270559	     -8.18644841	     26.32881496	     26.32881496	     14.62736512	      5.29624865	    -10.02275913	     24.60211308	     -7.36314184	     -0.77944091	     32.17749060	     32.17749060	     15.21158434	    -16.34256880	      6.46422444	     -8.34169177	      6.83590519	      3.23150861	     28.83437413	    -13.05939111	    -14.79916141	     42.12941072	     46.40470008	      0.00000000	      0.00000000	     12.44648371	    -17.30008827	      9.59212444	     38.43293685	     45.39655842	      0.00000000	      0.00000000
     47.01900000	     -6.23568313	     -5.84513557	     -1.07415996	      1.07172583	      0.91532578	      0.43484724	      6.86255539	     -5.42533484	     -6.93135015	     29.92581072	     29.92581072	     13.98463682	      3.45477529	    -11.69881174	     24.94547311	     -7.24350369	     -1.10116049	     33.22097911	     33.22097911	     15.99407155	    -16.78720859	      6.55810271	     -8.59790027	      7.04287417	      3.41304402	     25.92099299	    -13.04378972	    -14.71238007	     38.80499088	     46.49991021	      0.00000000	      0.00000000	     14.80579249	    -17.54262131	      9.40017919	     38.97602623	     45.46359876	      0.00000000	      0.00000000
     47.04000000	     -6.26990429	     -5.85395126	     -1.66497555	      1.07020604	      0.91349569	      0.43089943	      8.92235548	     -5.79513428	     -5.57677973	     33.58736412	     33.58736412	     12.20906639	      1.01747949	    -15.55150005	     25.20264231	     -7.13423343	     -1.41287236	     34.27104507	     34.27104507	     17.11648215	    -16.90315769	      7.79567334	     -8.96749419	      7.27556349	      3.08723205	     23.98354406	    -12.60476132	    -14.79549464	     33.39975287	     46.66178803	      0.00000000	      0.00000000	     17.16140128	    -17.90020389	      9.27543440	     38.63653596	     45.55743332	      0.00000000	      0.00000000
